pocestnik_fl.ufo
<glyph name="zero" format="1">
  <advance width="545"/>
  <unicode hex="0030"/>
  <outline>
    <contour>
      <point x="270" y="660" type="curve" smooth="yes"/>
      <point x="492" y="660"/>
      <point x="507" y="486"/>
      <point x="507" y="295" type="curve" smooth="yes"/>
      <point x="507" y="117"/>
      <point x="461" y="-10"/>
      <point x="270" y="-10" type="curve" smooth="yes"/>
      <point x="89" y="-10"/>
      <point x="44" y="129"/>
      <point x="44" y="295" type="curve" smooth="yes"/>
      <point x="44" y="476"/>
      <point x="58" y="660"/>
    </contour>
    <contour>
      <point x="156" y="295" type="line"/>
      <point x="156" y="197"/>
      <point x="156" y="85"/>
      <point x="270" y="85" type="curve" smooth="yes"/>
      <point x="377" y="85"/>
      <point x="395" y="160"/>
      <point x="395" y="264" type="curve" smooth="yes"/>
      <point x="395" y="295" type="line" smooth="yes"/>
      <point x="395" y="318" type="line" smooth="yes"/>
      <point x="395" y="431"/>
      <point x="403" y="565"/>
      <point x="270" y="565" type="curve" smooth="yes"/>
      <point x="153" y="565"/>
      <point x="156" y="443"/>
      <point x="156" y="340" type="curve"/>
    </contour>
  </outline>
</glyph>
<glyph name="one" format="1">
  <advance width="301"/>
  <unicode hex="0031"/>
  <outline>
    <contour>
      <point x="131" y="0" type="line"/>
      <point x="131" y="525" type="line"/>
      <point x="35" y="474" type="line"/>
      <point x="35" y="574" type="line"/>
      <point x="164" y="650" type="line"/>
      <point x="241" y="651" type="line"/>
      <point x="241" y="0" type="line"/>
    </contour>
  </outline>
</glyph>
<glyph name="A" format="1">
  <advance width="651"/>
  <unicode hex="0041"/>
  <outline>
    <contour>
      <point x="90" y="0" type="line"/>
      <point x="291" y="650" type="line"/>
      <point x="340" y="650" type="line"/>
      <point x="341" y="648" type="line"/>
      <point x="341" y="650" type="line"/>
      <point x="390" y="650" type="line"/>
      <point x="571" y="0" type="line"/>
      <point x="439" y="0" type="line"/>
      <point x="401" y="155" type="line"/>
      <point x="261" y="155" type="line"/>
      <point x="222" y="0" type="line"/>
    </contour>
    <contour>
      <point x="378" y="245" type="line"/>
      <point x="338" y="498" type="line"/>
      <point x="284" y="245" type="line"/>
    </contour>
  </outline>
</glyph>
<glyph name="C" format="1">
  <advance width="632"/>
  <unicode hex="0043"/>
  <outline>
    <contour>
      <point x="280" y="710" type="curve" smooth="yes"/>
      <point x="380" y="710"/>
      <point x="441" y="689"/>
      <point x="477" y="649" type="curve" smooth="yes"/>
      <point x="513" y="609"/>
      <point x="524" y="549"/>
      <point x="520" y="473" type="curve"/>
      <point x="418" y="473" type="line"/>
      <point x="418" y="528"/>
      <point x="412" y="563"/>
      <point x="392" y="585" type="curve" smooth="yes"/>
      <point x="372" y="607"/>
      <point x="337" y="615"/>
      <point x="280" y="615" type="curve" smooth="yes"/>
      <point x="205" y="615"/>
      <point x="169" y="584"/>
      <point x="150" y="533" type="curve" smooth="yes"/>
      <point x="131" y="482"/>
      <point x="132" y="414"/>
      <point x="132" y="345" type="curve" smooth="yes"/>
      <point x="132" y="241"/>
      <point x="139" y="178"/>
      <point x="162" y="139" type="curve" smooth="yes"/>
      <point x="185" y="99"/>
      <point x="220" y="85"/>
      <point x="280" y="85" type="curve" smooth="yes"/>
      <point x="329" y="85"/>
      <point x="364" y="88"/>
      <point x="386" y="104" type="curve"/>
      <point x="408" y="119"/>
      <point x="418" y="147"/>
      <point x="418" y="199" type="curve" smooth="yes"/>
      <point x="418" y="224" type="line"/>
      <point x="520" y="224" type="line"/>
      <point x="524" y="144"/>
      <point x="516" y="86"/>
      <point x="481" y="47" type="curve" smooth="yes"/>
      <point x="445" y="8"/>
      <point x="384" y="-10"/>
      <point x="280" y="-10" type="curve" smooth="yes"/>
      <point x="165" y="-10"/>
      <point x="100" y="30"/>
      <point x="64" y="94" type="curve" smooth="yes"/>
      <point x="28" y="158"/>
      <point x="20" y="246"/>
      <point x="20" y="345" type="curve" smooth="yes"/>
      <point x="20" y="441"/>
      <point x="28" y="533"/>
      <point x="64" y="600" type="curve" smooth="yes"/>
      <point x="100" y="667"/>
      <point x="165" y="710"/>
    </contour>
  </outline>
</glyph>
<glyph name="D" format="1">
  <advance width="730"/>
  <unicode hex="0044"/>
  <outline>
    <contour>
      <point x="313" y="0" type="move"/>
      <point x="203" y="0" type="line"/>
      <point x="203" y="651" type="line"/>
      <point x="313" y="651" type="line"/>
      <point x="313" y="434"/>
      <point x="313" y="312"/>
      <point x="313" y="95" type="curve"/>
    </contour>
    <contour>
      <point x="572" y="345" type="move"/>
      <point x="572" y="251"/>
      <point x="564" y="163"/>
      <point x="526" y="100" type="curve" smooth="yes"/>
      <point x="488" y="37"/>
      <point x="421" y="0"/>
      <point x="312" y="0" type="curve"/>
      <point x="421" y="0"/>
      <point x="488" y="37"/>
      <point x="526" y="100" type="curve" smooth="yes"/>
      <point x="564" y="163"/>
      <point x="572" y="251"/>
      <point x="572" y="345" type="curve"/>
    </contour>
    <contour>
      <point x="460" y="345" type="move"/>
      <point x="460" y="314" type="line" smooth="yes"/>
      <point x="460" y="235"/>
      <point x="451" y="177"/>
      <point x="426" y="142" type="curve" smooth="yes"/>
      <point x="402" y="107"/>
      <point x="362" y="95"/>
      <point x="312" y="95" type="curve"/>
      <point x="362" y="95"/>
      <point x="402" y="107"/>
      <point x="426" y="142" type="curve" smooth="yes"/>
      <point x="451" y="177"/>
      <point x="460" y="235"/>
      <point x="460" y="314" type="curve" smooth="yes"/>
      <point x="460" y="345" type="line"/>
    </contour>
    <contour>
      <point x="572" y="346" type="move"/>
      <point x="572" y="440"/>
      <point x="564" y="488"/>
      <point x="526" y="551" type="curve" smooth="yes"/>
      <point x="488" y="614"/>
      <point x="422" y="651"/>
      <point x="313" y="651" type="curve"/>
      <point x="422" y="651"/>
      <point x="488" y="614"/>
      <point x="526" y="551" type="curve" smooth="yes"/>
      <point x="564" y="488"/>
      <point x="572" y="440"/>
      <point x="572" y="346" type="curve"/>
    </contour>
    <contour>
      <point x="460" y="346" type="move"/>
      <point x="460" y="377" type="line" smooth="yes"/>
      <point x="460" y="456"/>
      <point x="451" y="474"/>
      <point x="426" y="509" type="curve" smooth="yes"/>
      <point x="402" y="544"/>
      <point x="362" y="556"/>
      <point x="312" y="556" type="curve"/>
      <point x="362" y="556"/>
      <point x="402" y="544"/>
      <point x="426" y="509" type="curve" smooth="yes"/>
      <point x="451" y="474"/>
      <point x="460" y="456"/>
      <point x="460" y="377" type="curve" smooth="yes"/>
      <point x="460" y="346" type="line"/>
    </contour>
  </outline>
</glyph>
<glyph name="E" format="1">
  <advance width="452"/>
  <unicode hex="0045"/>
  <outline>
    <contour>
      <point x="45" y="650" type="line"/>
      <point x="417" y="650" type="line"/>
      <point x="417" y="565" type="line"/>
      <point x="162" y="565" type="line"/>
      <point x="162" y="365" type="line"/>
      <point x="367" y="365" type="line"/>
      <point x="367" y="280" type="line"/>
      <point x="162" y="280" type="line"/>
      <point x="162" y="85" type="line"/>
      <point x="437" y="85" type="line"/>
      <point x="437" y="0" type="line"/>
      <point x="45" y="0" type="line"/>
    </contour>
  </outline>
</glyph>
<glyph name="F" format="1">
  <advance width="387"/>
  <unicode hex="0046"/>
  <outline>
    <contour>
      <point x="40" y="0" type="line"/>
      <point x="40" y="650" type="line"/>
      <point x="372" y="650" type="line"/>
      <point x="372" y="565" type="line"/>
      <point x="150" y="565" type="line"/>
      <point x="150" y="388" type="line"/>
      <point x="322" y="388" type="line"/>
      <point x="322" y="308" type="line"/>
      <point x="150" y="308" type="line"/>
      <point x="150" y="0" type="line"/>
    </contour>
  </outline>
</glyph>
<glyph name="H" format="1">
  <advance width="561"/>
  <unicode hex="0048"/>
  <outline>
    <contour>
      <point x="182" y="650" type="line"/>
      <point x="182" y="395" type="line"/>
      <point x="419" y="395" type="line"/>
      <point x="419" y="650" type="line"/>
      <point x="531" y="650" type="line"/>
      <point x="531" y="0" type="line"/>
      <point x="419" y="0" type="line"/>
      <point x="419" y="300" type="line"/>
      <point x="182" y="300" type="line"/>
      <point x="182" y="0" type="line"/>
      <point x="70" y="0" type="line"/>
      <point x="70" y="650" type="line"/>
    </contour>
  </outline>
</glyph>
<glyph name="I" format="1">
  <advance width="230"/>
  <unicode hex="0049"/>
  <outline>
    <contour>
      <point x="60" y="2" type="line"/>
      <point x="60" y="650" type="line"/>
      <point x="170" y="650" type="line"/>
      <point x="170" y="2" type="line"/>
    </contour>
  </outline>
</glyph>
<glyph name="L" format="1">
  <advance width="396"/>
  <unicode hex="004C"/>
  <outline>
    <contour>
      <point x="169" y="650" type="line"/>
      <point x="169" y="89" type="line"/>
      <point x="391" y="89" type="line"/>
      <point x="391" y="0" type="line"/>
      <point x="70" y="0" type="line"/>
      <point x="70" y="650" type="line"/>
    </contour>
  </outline>
</glyph>
<glyph name="M" format="1">
  <advance width="612"/>
  <unicode hex="004D"/>
  <outline>
    <contour>
      <point x="155" y="651" type="line"/>
      <point x="306" y="401" type="line"/>
      <point x="457" y="651" type="line"/>
      <point x="557" y="651" type="line"/>
      <point x="557" y="0" type="line"/>
      <point x="457" y="0" type="line"/>
      <point x="457" y="383" type="line"/>
      <point x="462" y="488" type="line"/>
      <point x="306" y="234" type="line"/>
      <point x="150" y="488" type="line"/>
      <point x="155" y="383" type="line"/>
      <point x="155" y="0" type="line"/>
      <point x="55" y="0" type="line"/>
      <point x="55" y="651" type="line"/>
    </contour>
  </outline>
</glyph>
<glyph name="N" format="1">
  <advance width="601"/>
  <unicode hex="004E"/>
  <outline>
    <contour>
      <point x="70" y="650" type="line"/>
      <point x="180" y="650" type="line"/>
      <point x="461" y="191" type="line"/>
      <point x="461" y="650" type="line"/>
      <point x="571" y="650" type="line"/>
      <point x="571" y="0" type="line"/>
      <point x="461" y="0" type="line"/>
      <point x="461" y="-1" type="line"/>
      <point x="196" y="436" type="line"/>
      <point x="180" y="458" type="line"/>
      <point x="180" y="0" type="line"/>
      <point x="70" y="0" type="line"/>
    </contour>
  </outline>
</glyph>
<glyph name="O" format="1">
  <advance width="580"/>
  <unicode hex="004F"/>
  <outline>
    <contour>
      <point x="285" y="660" type="curve" smooth="yes"/>
      <point x="517" y="660"/>
      <point x="545" y="486"/>
      <point x="545" y="295" type="curve" smooth="yes"/>
      <point x="545" y="117"/>
      <point x="486" y="-10"/>
      <point x="285" y="-10" type="curve" smooth="yes"/>
      <point x="93" y="-10"/>
      <point x="35" y="129"/>
      <point x="35" y="295" type="curve" smooth="yes"/>
      <point x="35" y="476"/>
      <point x="61" y="660"/>
    </contour>
    <contour>
      <point x="147" y="295" type="line"/>
      <point x="147" y="197"/>
      <point x="159" y="85"/>
      <point x="285" y="85" type="curve" smooth="yes"/>
      <point x="402" y="85"/>
      <point x="433" y="160"/>
      <point x="433" y="264" type="curve" smooth="yes"/>
      <point x="433" y="295" type="line" smooth="yes"/>
      <point x="433" y="318" type="line" smooth="yes"/>
      <point x="433" y="431"/>
      <point x="428" y="565"/>
      <point x="285" y="565" type="curve" smooth="yes"/>
      <point x="155" y="565"/>
      <point x="147" y="443"/>
      <point x="147" y="340" type="curve"/>
    </contour>
  </outline>
</glyph>
<glyph name="T" format="1">
  <advance width="512"/>
  <unicode hex="0054"/>
  <outline>
    <contour>
      <point x="489" y="650" type="line"/>
      <point x="489" y="565" type="line"/>
      <point x="307" y="565" type="line"/>
      <point x="307" y="0" type="line"/>
      <point x="197" y="0" type="line"/>
      <point x="197" y="565" type="line"/>
      <point x="25" y="565" type="line"/>
      <point x="25" y="650" type="line"/>
    </contour>
  </outline>
</glyph>
<glyph name="a" format="1">
  <advance width="490"/>
  <unicode hex="0061"/>
  <outline>
    <contour>
      <point x="434" y="308" type="line" smooth="yes"/>
      <point x="434" y="446"/>
      <point x="382" y="505"/>
      <point x="259" y="505" type="curve" smooth="yes"/>
      <point x="196" y="505"/>
      <point x="126" y="491"/>
      <point x="82" y="470" type="curve"/>
      <point x="82" y="385" type="line"/>
      <point x="130" y="406"/>
      <point x="197" y="421"/>
      <point x="249" y="421" type="curve" smooth="yes"/>
      <point x="309" y="421"/>
      <point x="339" y="390"/>
      <point x="339" y="319" type="curve" smooth="yes"/>
      <point x="339" y="307" type="line"/>
      <point x="229" y="307" type="line" smooth="yes"/>
      <point x="108" y="307"/>
      <point x="49" y="225"/>
      <point x="49" y="144" type="curve" smooth="yes"/>
      <point x="49" y="64"/>
      <point x="106" y="-15"/>
      <point x="203" y="-15" type="curve" smooth="yes"/>
      <point x="267" y="-15"/>
      <point x="310" y="10"/>
      <point x="346" y="57" type="curve"/>
      <point x="372" y="0" type="line"/>
      <point x="435" y="0" type="line"/>
    </contour>
    <contour>
      <point x="299" y="67"/>
      <point x="232" y="67" type="curve" smooth="yes"/>
      <point x="185" y="67"/>
      <point x="150" y="94"/>
      <point x="150" y="147" type="curve" smooth="yes"/>
      <point x="150" y="187"/>
      <point x="177" y="228"/>
      <point x="232" y="228" type="curve" smooth="yes"/>
      <point x="339" y="228" type="line"/>
      <point x="342" y="131"/>
    </contour>
  </outline>
</glyph>
<glyph name="b" format="1">
  <advance width="536"/>
  <unicode hex="0062"/>
  <outline>
    <contour>
      <point x="65" y="0" type="line"/>
      <point x="69" y="730" type="line"/>
      <point x="162" y="750" type="line"/>
      <point x="162" y="500" type="line"/>
      <point x="157" y="419" type="line"/>
      <point x="191" y="477"/>
      <point x="246" y="513"/>
      <point x="314" y="513" type="curve" smooth="yes"/>
      <point x="426" y="513"/>
      <point x="486" y="434"/>
      <point x="486" y="250" type="curve" smooth="yes"/>
      <point x="486" y="78"/>
      <point x="421" y="-15"/>
      <point x="299" y="-15" type="curve" smooth="yes"/>
      <point x="243" y="-15"/>
      <point x="194" y="14"/>
      <point x="168" y="57" type="curve"/>
      <point x="132" y="0" type="line"/>
    </contour>
    <contour>
      <point x="284" y="75" type="curve" smooth="yes"/>
      <point x="351" y="75"/>
      <point x="377" y="127"/>
      <point x="377" y="249" type="curve" smooth="yes"/>
      <point x="377" y="371"/>
      <point x="351" y="423"/>
      <point x="284" y="423" type="curve" smooth="yes"/>
      <point x="217" y="423"/>
      <point x="164" y="361"/>
      <point x="164" y="266" type="curve" smooth="yes"/>
      <point x="164" y="222" type="line" smooth="yes"/>
      <point x="164" y="134"/>
      <point x="222" y="75"/>
    </contour>
  </outline>
</glyph>
<glyph name="d" format="1">
  <advance width="496"/>
  <unicode hex="0064"/>
  <outline>
    <contour>
      <point x="40" y="235" type="curve" smooth="yes"/>
      <point x="40" y="430"/>
      <point x="95" y="513"/>
      <point x="222" y="513" type="curve" smooth="yes"/>
      <point x="288" y="513"/>
      <point x="338" y="484"/>
      <point x="364" y="429" type="curve"/>
      <point x="364" y="730" type="line"/>
      <point x="463" y="750" type="line"/>
      <point x="467" y="0" type="line"/>
      <point x="394" y="0" type="line"/>
      <point x="358" y="57" type="line"/>
      <point x="332" y="10"/>
      <point x="284" y="-15"/>
      <point x="222" y="-15" type="curve" smooth="yes"/>
      <point x="95" y="-15"/>
      <point x="40" y="60"/>
    </contour>
    <contour>
      <point x="146" y="244" type="curve" smooth="yes"/>
      <point x="146" y="122"/>
      <point x="177" y="70"/>
      <point x="249" y="70" type="curve" smooth="yes"/>
      <point x="324" y="70"/>
      <point x="359" y="125"/>
      <point x="359" y="227" type="curve" smooth="yes"/>
      <point x="359" y="291" type="line" smooth="yes"/>
      <point x="359" y="374"/>
      <point x="317" y="418"/>
      <point x="249" y="418" type="curve" smooth="yes"/>
      <point x="177" y="418"/>
      <point x="146" y="366"/>
    </contour>
  </outline>
</glyph>
<glyph name="e" format="1">
  <advance width="490"/>
  <unicode hex="0065"/>
  <outline>
    <contour>
      <point x="245" y="514" type="curve" smooth="yes"/>
      <point x="378" y="514"/>
      <point x="439" y="425"/>
      <point x="439" y="276" type="curve" smooth="yes"/>
      <point x="439" y="239"/>
      <point x="434" y="216"/>
      <point x="433" y="209" type="curve"/>
      <point x="142" y="209" type="line"/>
      <point x="142" y="207" type="line"/>
      <point x="142" y="43"/>
      <point x="285" y="68"/>
      <point x="410" y="106" type="curve"/>
      <point x="410" y="24" type="line"/>
      <point x="244" y="-40"/>
      <point x="40" y="-29"/>
      <point x="40" y="256" type="curve" smooth="yes"/>
      <point x="40" y="425"/>
      <point x="112" y="514"/>
    </contour>
    <contour>
      <point x="346" y="290" type="line"/>
      <point x="346" y="294" type="line" smooth="yes"/>
      <point x="349" y="377"/>
      <point x="312" y="424"/>
      <point x="245" y="424" type="curve" smooth="yes"/>
      <point x="178" y="424"/>
      <point x="142" y="377"/>
      <point x="142" y="294" type="curve" smooth="yes"/>
      <point x="142" y="290" type="line"/>
    </contour>
  </outline>
</glyph>
<glyph name="f" format="1">
  <advance width="318"/>
  <unicode hex="0066"/>
  <outline>
    <contour>
      <point x="15" y="501" type="line"/>
      <point x="80" y="501" type="line"/>
      <point x="80" y="607" type="line" smooth="yes"/>
      <point x="80" y="659"/>
      <point x="98" y="696"/>
      <point x="127" y="720" type="curve" smooth="yes"/>
      <point x="155" y="744"/>
      <point x="194" y="754"/>
      <point x="237" y="754" type="curve" smooth="yes"/>
      <point x="258" y="754"/>
      <point x="280" y="751"/>
      <point x="305" y="746" type="curve"/>
      <point x="305" y="658" type="line"/>
      <point x="283" y="665"/>
      <point x="264" y="669"/>
      <point x="248" y="669" type="curve" smooth="yes"/>
      <point x="205" y="669"/>
      <point x="178" y="648"/>
      <point x="178" y="605" type="curve" smooth="yes"/>
      <point x="178" y="501" type="line"/>
      <point x="295" y="501" type="line"/>
      <point x="295" y="411" type="line"/>
      <point x="178" y="411" type="line"/>
      <point x="178" y="0" type="line"/>
      <point x="80" y="0" type="line"/>
      <point x="80" y="411" type="line"/>
      <point x="15" y="411" type="line"/>
    </contour>
  </outline>
</glyph>
<glyph name="g" format="1">
  <advance width="476"/>
  <unicode hex="0067"/>
  <outline>
    <contour>
      <point x="379" y="500" type="line"/>
      <point x="343" y="443" type="line"/>
      <point x="317" y="490"/>
      <point x="269" y="515"/>
      <point x="207" y="515" type="curve" smooth="yes"/>
      <point x="80" y="515"/>
      <point x="25" y="436"/>
      <point x="25" y="250" type="curve" smooth="yes"/>
      <point x="25" y="66"/>
      <point x="80" y="-13"/>
      <point x="207" y="-13" type="curve" smooth="yes"/>
      <point x="275" y="-13"/>
      <point x="325" y="13"/>
      <point x="349" y="81" type="curve"/>
      <point x="349" y="-57" type="line" smooth="yes"/>
      <point x="349" y="-130"/>
      <point x="301" y="-178"/>
      <point x="230" y="-178" type="curve" smooth="yes"/>
      <point x="178" y="-178"/>
      <point x="135" y="-148"/>
      <point x="124" y="-102" type="curve"/>
      <point x="39" y="-102" type="line"/>
      <point x="46" y="-201"/>
      <point x="124" y="-267"/>
      <point x="235" y="-267" type="curve" smooth="yes"/>
      <point x="362" y="-267"/>
      <point x="447" y="-179"/>
      <point x="448" y="-47" type="curve" smooth="yes"/>
      <point x="451" y="500" type="line"/>
    </contour>
    <contour>
      <point x="340" y="234" type="line" smooth="yes"/>
      <point x="340" y="132"/>
      <point x="305" y="77"/>
      <point x="230" y="77" type="curve" smooth="yes"/>
      <point x="158" y="77"/>
      <point x="127" y="129"/>
      <point x="127" y="251" type="curve" smooth="yes"/>
      <point x="127" y="373"/>
      <point x="158" y="425"/>
      <point x="230" y="425" type="curve" smooth="yes"/>
      <point x="298" y="425"/>
      <point x="340" y="381"/>
      <point x="340" y="298" type="curve" smooth="yes"/>
    </contour>
  </outline>
</glyph>
<glyph name="h" format="1">
  <advance width="466"/>
  <unicode hex="0068"/>
  <outline>
    <contour>
      <point x="44" y="740" type="line"/>
      <point x="135" y="760" type="line"/>
      <point x="137" y="429" type="line"/>
      <point x="164" y="485"/>
      <point x="211" y="513"/>
      <point x="279" y="513" type="curve" smooth="yes"/>
      <point x="380" y="513"/>
      <point x="441" y="459"/>
      <point x="441" y="338" type="curve" smooth="yes"/>
      <point x="441" y="0" type="line"/>
      <point x="337" y="0" type="line"/>
      <point x="337" y="338" type="line" smooth="yes"/>
      <point x="337" y="394"/>
      <point x="309" y="423"/>
      <point x="264" y="423" type="curve" smooth="yes"/>
      <point x="184" y="423"/>
      <point x="144" y="357"/>
      <point x="144" y="256" type="curve" smooth="yes"/>
      <point x="143" y="0" type="line"/>
      <point x="40" y="0" type="line"/>
    </contour>
  </outline>
</glyph>
<glyph name="i" format="1">
  <advance width="252"/>
  <unicode hex="0069"/>
  <outline>
    <contour>
      <point x="45" y="500" type="line"/>
      <point x="197" y="500" type="line"/>
      <point x="197" y="0" type="line"/>
      <point x="94" y="0" type="line"/>
      <point x="94" y="410" type="line"/>
      <point x="45" y="410" type="line"/>
    </contour>
    <contour>
      <point x="197" y="660" type="line"/>
      <point x="197" y="567" type="line"/>
      <point x="90" y="567" type="line"/>
      <point x="90" y="660" type="line"/>
    </contour>
  </outline>
</glyph>
<glyph name="j" format="1">
  <advance width="259"/>
  <unicode hex="006A"/>
  <outline>
    <contour>
      <point x="92" y="500" type="line"/>
      <point x="190" y="500" type="line"/>
      <point x="190" y="-107" type="line" smooth="yes"/>
      <point x="190" y="-162"/>
      <point x="176" y="-197"/>
      <point x="152" y="-219" type="curve" smooth="yes"/>
      <point x="127" y="-241"/>
      <point x="92" y="-250"/>
      <point x="51" y="-250" type="curve" smooth="yes"/>
      <point x="34" y="-250"/>
      <point x="15" y="-249"/>
      <point x="-5" y="-246" type="curve"/>
      <point x="-5" y="-168" type="line"/>
      <point x="12" y="-171"/>
      <point x="25" y="-173"/>
      <point x="35" y="-173" type="curve" smooth="yes"/>
      <point x="75" y="-173"/>
      <point x="89" y="-153"/>
      <point x="92" y="-105" type="curve"/>
    </contour>
    <contour>
      <point x="86" y="565" type="line"/>
      <point x="86" y="672" type="line"/>
      <point x="196" y="672" type="line"/>
      <point x="196" y="565" type="line"/>
    </contour>
  </outline>
</glyph>
<glyph name="l" format="1">
  <advance width="292"/>
  <unicode hex="006C"/>
  <outline>
    <contour>
      <point x="167" y="749" type="line"/>
      <point x="167" y="140" type="line" smooth="yes"/>
      <point x="167" y="83"/>
      <point x="209" y="70"/>
      <point x="282" y="92" type="curve"/>
      <point x="282" y="0" type="line"/>
      <point x="141" y="-30"/>
      <point x="70" y="16"/>
      <point x="70" y="114" type="curve" smooth="yes"/>
      <point x="70" y="730" type="line"/>
    </contour>
  </outline>
</glyph>
<glyph name="n" format="1">
  <advance width="511"/>
  <unicode hex="006E"/>
  <outline>
    <contour>
      <point x="59" y="500" type="line"/>
      <point x="116" y="500" type="line"/>
      <point x="152" y="439" type="line"/>
      <point x="189" y="486"/>
      <point x="235" y="513"/>
      <point x="294" y="513" type="curve" smooth="yes"/>
      <point x="407" y="513"/>
      <point x="456" y="447"/>
      <point x="456" y="338" type="curve" smooth="yes"/>
      <point x="456" y="0" type="line"/>
      <point x="352" y="0" type="line"/>
      <point x="352" y="338" type="line" smooth="yes"/>
      <point x="352" y="394"/>
      <point x="324" y="423"/>
      <point x="279" y="423" type="curve" smooth="yes"/>
      <point x="232" y="423"/>
      <point x="203" y="401"/>
      <point x="184" y="369" type="curve" smooth="yes"/>
      <point x="165" y="337"/>
      <point x="159" y="296"/>
      <point x="159" y="256" type="curve" smooth="yes"/>
      <point x="158" y="0" type="line"/>
      <point x="55" y="0" type="line"/>
    </contour>
  </outline>
</glyph>
<glyph name="o" format="1">
  <advance width="480"/>
  <unicode hex="006F"/>
  <outline>
    <contour>
      <point x="35" y="256" type="curve" smooth="yes"/>
      <point x="35" y="425"/>
      <point x="107" y="514"/>
      <point x="240" y="514" type="curve" smooth="yes"/>
      <point x="373" y="514"/>
      <point x="445" y="425"/>
      <point x="445" y="256" type="curve" smooth="yes"/>
      <point x="445" y="80"/>
      <point x="373" y="-13"/>
      <point x="240" y="-13" type="curve" smooth="yes"/>
      <point x="107" y="-13"/>
      <point x="35" y="80"/>
    </contour>
    <contour>
      <point x="240" y="77" type="curve" smooth="yes"/>
      <point x="307" y="77"/>
      <point x="345" y="124"/>
      <point x="345" y="207" type="curve" smooth="yes"/>
      <point x="345" y="294" type="line" smooth="yes"/>
      <point x="345" y="377"/>
      <point x="307" y="424"/>
      <point x="240" y="424" type="curve" smooth="yes"/>
      <point x="173" y="424"/>
      <point x="135" y="377"/>
      <point x="135" y="294" type="curve" smooth="yes"/>
      <point x="135" y="207" type="line" smooth="yes"/>
      <point x="135" y="124"/>
      <point x="173" y="77"/>
    </contour>
  </outline>
</glyph>
<glyph name="p" format="1">
  <advance width="492"/>
  <unicode hex="0070"/>
  <outline>
    <contour>
      <point x="42" y="500" type="line"/>
      <point x="109" y="500" type="line"/>
      <point x="145" y="443" type="line"/>
      <point x="172" y="491"/>
      <point x="218" y="515"/>
      <point x="281" y="515" type="curve" smooth="yes"/>
      <point x="406" y="515"/>
      <point x="463" y="433"/>
      <point x="463" y="250" type="curve" smooth="yes"/>
      <point x="463" y="69"/>
      <point x="406" y="-13"/>
      <point x="281" y="-13" type="curve" smooth="yes"/>
      <point x="212" y="-13"/>
      <point x="166" y="4"/>
      <point x="139" y="61" type="curve"/>
      <point x="139" y="-250" type="line"/>
      <point x="46" y="-230" type="line"/>
    </contour>
    <contour>
      <point x="262" y="74" type="curve" smooth="yes"/>
      <point x="324" y="74"/>
      <point x="350" y="126"/>
      <point x="350" y="248" type="curve" smooth="yes"/>
      <point x="350" y="370"/>
      <point x="324" y="422"/>
      <point x="262" y="422" type="curve" smooth="yes"/>
      <point x="190" y="422"/>
      <point x="147" y="360"/>
      <point x="147" y="265" type="curve" smooth="yes"/>
      <point x="147" y="221" type="line" smooth="yes"/>
      <point x="147" y="133"/>
      <point x="195" y="74"/>
    </contour>
  </outline>
</glyph>
<glyph name="q" format="1">
  <advance width="476"/>
  <unicode hex="0071"/>
  <outline>
    <contour>
      <point x="25" y="250" type="curve" smooth="yes"/>
      <point x="25" y="436"/>
      <point x="80" y="515"/>
      <point x="207" y="515" type="curve" smooth="yes"/>
      <point x="269" y="515"/>
      <point x="317" y="490"/>
      <point x="343" y="443" type="curve"/>
      <point x="379" y="500" type="line"/>
      <point x="451" y="500" type="line"/>
      <point x="447" y="-250" type="line"/>
      <point x="349" y="-230" type="line"/>
      <point x="349" y="81" type="line"/>
      <point x="325" y="13"/>
      <point x="275" y="-13"/>
      <point x="207" y="-13" type="curve" smooth="yes"/>
      <point x="80" y="-13"/>
      <point x="25" y="66"/>
    </contour>
    <contour>
      <point x="127" y="251" type="curve" smooth="yes"/>
      <point x="127" y="129"/>
      <point x="158" y="77"/>
      <point x="230" y="77" type="curve" smooth="yes"/>
      <point x="305" y="77"/>
      <point x="340" y="132"/>
      <point x="340" y="234" type="curve" smooth="yes"/>
      <point x="340" y="298" type="line" smooth="yes"/>
      <point x="340" y="381"/>
      <point x="298" y="425"/>
      <point x="230" y="425" type="curve" smooth="yes"/>
      <point x="158" y="425"/>
      <point x="127" y="373"/>
    </contour>
  </outline>
</glyph>
<glyph name="r" format="1">
  <advance width="337"/>
  <unicode hex="0072"/>
  <outline>
    <contour>
      <point x="55" y="0" type="line"/>
      <point x="55" y="500" type="line"/>
      <point x="114" y="500" type="line"/>
      <point x="137" y="435" type="line"/>
      <point x="156" y="484"/>
      <point x="220" y="513"/>
      <point x="307" y="500" type="curve"/>
      <point x="307" y="412" type="line"/>
      <point x="197" y="422"/>
      <point x="154" y="378"/>
      <point x="154" y="282" type="curve" smooth="yes"/>
      <point x="154" y="0" type="line"/>
    </contour>
  </outline>
</glyph>
<glyph name="t" format="1">
  <advance width="325"/>
  <unicode hex="0074"/>
  <outline>
    <contour>
      <point x="10" y="501" type="line"/>
      <point x="85" y="501" type="line"/>
      <point x="85" y="610" type="line"/>
      <point x="183" y="650" type="line"/>
      <point x="183" y="501" type="line"/>
      <point x="300" y="501" type="line"/>
      <point x="300" y="411" type="line"/>
      <point x="183" y="411" type="line"/>
      <point x="183" y="148" type="line" smooth="yes"/>
      <point x="183" y="105"/>
      <point x="204" y="81"/>
      <point x="243" y="81" type="curve" smooth="yes"/>
      <point x="260" y="81"/>
      <point x="279" y="86"/>
      <point x="300" y="95" type="curve"/>
      <point x="300" y="7" type="line"/>
      <point x="275" y="-1"/>
      <point x="251" y="-4"/>
      <point x="228" y="-4" type="curve" smooth="yes"/>
      <point x="147" y="-4"/>
      <point x="85" y="43"/>
      <point x="85" y="146" type="curve" smooth="yes"/>
      <point x="85" y="411" type="line"/>
      <point x="10" y="411" type="line"/>
    </contour>
  </outline>
</glyph>
<glyph name="u" format="1">
  <advance width="526"/>
  <unicode hex="0075"/>
  <outline>
    <contour>
      <point x="462" y="-0" type="line"/>
      <point x="405" y="-0" type="line"/>
      <point x="369" y="61" type="line"/>
      <point x="342" y="14"/>
      <point x="296" y="-13"/>
      <point x="227" y="-13" type="curve" smooth="yes"/>
      <point x="115" y="-13"/>
      <point x="55" y="48"/>
      <point x="55" y="172" type="curve" smooth="yes"/>
      <point x="55" y="500" type="line"/>
      <point x="159" y="500" type="line"/>
      <point x="159" y="182" type="line" smooth="yes"/>
      <point x="159" y="114"/>
      <point x="192" y="77"/>
      <point x="252" y="77" type="curve" smooth="yes"/>
      <point x="320" y="77"/>
      <point x="362" y="135"/>
      <point x="362" y="244" type="curve" smooth="yes"/>
      <point x="363" y="500" type="line"/>
      <point x="466" y="500" type="line"/>
    </contour>
  </outline>
</glyph>
<glyph name="x" format="1">
  <advance width="534"/>
  <unicode hex="0078"/>
  <outline>
    <contour>
      <point x="204" y="280" type="line"/>
      <point x="93" y="503" type="line"/>
      <point x="196" y="503" type="line"/>
      <point x="268" y="364" type="line"/>
      <point x="345" y="501" type="line"/>
      <point x="451" y="501" type="line"/>
      <point x="329" y="277" type="line"/>
      <point x="491" y="0" type="line"/>
      <point x="377" y="0" type="line"/>
      <point x="269" y="202" type="line"/>
      <point x="160" y="0" type="line"/>
      <point x="53" y="0" type="line"/>
    </contour>
  </outline>
</glyph>
